# xmcd
#
# Track frame offsets:
#	150
#	53286
#	86948
#	114159
#	146089
#	175849
#	219595
#	255183
#	295804
#	315376
#
# Disc length: 4651 seconds
#
# Revision: 0
# Processed by: cddbd v1.5.2PL0 Copyright (c) Steve Scherf et al.
# Submitted via: audiograbber 1.83.01
#
DISCID=8212290a
DTITLE=Grateful Dead - 94-03-05 Desert Sky Pavilion, Phoenix AZ
DYEAR=1900
DGENRE=
TTITLE0=Feel Like A Stranger
TTITLE1=Stagger Lee
TTITLE2=El Paso
TTITLE3=Loose Lucy
TTITLE4=Broken Arrow
TTITLE5=Eternity
TTITLE6=Bertha
TTITLE7=China Cat Sunflower
TTITLE8=I Know You Rider
TTITLE9=Way To Go Home
EXTD=
EXTT0=
EXTT1=
EXTT2=
EXTT3=
EXTT4=
EXTT5=
EXTT6=
EXTT7=
EXTT8=
EXTT9=
PLAYORDER=
